<?xml version="1.0" standalone="no"?>
<!DOCTYPE svg PUBLIC "-//W3C//DTD SVG 20010904//EN"
 "http://www.w3.org/TR/2001/REC-SVG-20010904/DTD/svg10.dtd">
<svg version="1.0" xmlns="http://www.w3.org/2000/svg"
 width="2212.000000pt" height="2669.000000pt" viewBox="0 0 2212.000000 2669.000000"
 preserveAspectRatio="xMidYMid meet">
<metadata>
Created by potrace 1.16, written by Peter Selinger 2001-2019
</metadata>
<g transform="translate(0.000000,2669.000000) scale(0.100000,-0.100000)"
fill="#f97316" stroke="none">
<path d="M11270 25679 c-509 -31 -967 -82 -1170 -130 -210 -49 -854 -244
-1145 -347 -77 -27 -189 -72 -250 -99 -60 -28 -218 -97 -350 -153 -260 -111
-443 -198 -490 -234 -16 -13 -58 -37 -93 -54 -141 -70 -576 -376 -651 -458
-124 -135 -97 -279 55 -292 94 -8 134 4 210 61 207 156 1052 621 1459 803 500
223 925 345 1585 453 410 67 588 81 1170 88 631 8 992 -12 1314 -72 407 -75
974 -219 1116 -282 30 -13 201 -84 380 -158 179 -73 402 -167 495 -208 423
-186 523 -230 565 -249 25 -11 121 -69 213 -130 266 -173 334 -197 397 -140
19 16 35 43 40 67 20 87 -42 153 -310 334 -958 645 -2206 1056 -3570 1175
-177 16 -647 47 -665 45 -6 -1 -143 -10 -305 -20z"/>
<path d="M17128 23805 c-207 -39 -499 -161 -688 -288 -146 -98 -383 -313 -536
-487 -233 -266 -304 -410 -409 -831 -30 -119 -72 -268 -94 -330 l-40 -114 -83
-79 c-153 -145 -714 -585 -796 -624 -32 -16 -35 -16 -49 3 -20 27 -11 117 24
232 75 253 88 380 79 753 -16 611 -57 816 -180 891 -50 30 -126 26 -197 -12
-270 -144 -710 -703 -869 -1105 -117 -294 -138 -681 -71 -1279 24 -214 28
-272 18 -280 -7 -5 -44 -35 -82 -66 -97 -79 -213 -152 -400 -252 -88 -47 -214
-117 -279 -156 -134 -80 -209 -111 -265 -111 -101 0 -112 76 -37 260 84 211
126 421 146 735 24 381 -51 776 -176 924 -32 38 -93 71 -131 71 -16 0 -51 -15
-79 -34 -122 -82 -406 -364 -520 -516 -158 -209 -381 -675 -449 -936 -38 -148
-50 -323 -36 -562 12 -213 30 -344 62 -461 27 -96 18 -129 -58 -211 -107 -116
-509 -432 -615 -483 -66 -32 -118 -35 -141 -9 -22 24 -22 83 -1 322 23 258 23
519 0 640 -54 295 -140 541 -221 632 -38 43 -95 78 -128 78 -138 0 -445 -334
-606 -658 -148 -296 -242 -538 -266 -681 -21 -122 -35 -390 -36 -646 0 -258 8
-311 81 -509 102 -281 114 -358 68 -456 -14 -30 -88 -150 -164 -267 -77 -117
-168 -265 -203 -330 -108 -199 -226 -363 -262 -363 -18 0 -136 118 -244 245
-117 138 -527 663 -730 935 -146 197 -293 414 -367 545 -77 135 -447 882 -493
995 -89 217 -252 757 -300 995 -101 502 -101 1429 1 2135 32 225 64 369 124
555 119 368 126 476 37 551 -41 35 -77 28 -170 -30 -215 -134 -674 -603 -1063
-1087 -458 -570 -923 -1461 -1120 -2148 -51 -176 -169 -750 -184 -891 -31
-305 -37 -1148 -10 -1520 36 -501 104 -943 186 -1204 145 -466 216 -1050 161
-1331 -45 -229 -129 -424 -223 -520 -71 -72 -126 -97 -224 -103 -279 -16 -466
180 -621 649 -104 315 -119 424 -119 846 0 402 18 684 61 961 27 171 24 329
-6 382 -44 74 -156 99 -224 51 -70 -50 -165 -230 -461 -871 -100 -217 -214
-456 -252 -530 -212 -404 -254 -500 -389 -870 -43 -118 -95 -255 -117 -305
-41 -93 -74 -181 -258 -680 -138 -378 -168 -468 -214 -660 -70 -286 -144 -750
-191 -1195 -27 -258 -38 -855 -20 -1127 58 -883 271 -1620 678 -2341 273 -486
537 -812 843 -1041 177 -133 217 -133 266 -6 16 42 16 45 -5 88 -12 24 -80
115 -153 203 -476 577 -827 1139 -1002 1609 -38 101 -212 762 -240 910 -34
183 -41 358 -41 1050 0 873 5 921 121 1375 261 1016 422 1483 769 2225 167
357 222 484 269 625 24 71 56 146 70 165 30 39 80 69 101 61 30 -11 48 -134
70 -471 33 -501 90 -725 250 -970 110 -171 266 -320 408 -391 95 -49 201 -74
337 -81 407 -21 645 134 801 522 106 263 132 541 84 885 -25 180 -218 1229
-275 1495 -28 132 -60 281 -70 330 -45 211 -55 370 -55 905 0 685 16 830 140
1300 204 776 442 1357 760 1859 136 215 448 619 590 764 177 181 222 149 180
-131 -84 -558 -5 -1927 145 -2507 36 -138 150 -489 200 -615 83 -206 210 -482
275 -596 339 -591 1169 -1784 1560 -2239 116 -136 145 -195 145 -295 0 -93
-18 -184 -104 -520 -106 -418 -136 -657 -116 -935 30 -420 118 -761 256 -982
107 -171 339 -455 446 -544 134 -111 350 -231 502 -278 87 -27 101 -26 133 5
24 24 25 31 20 90 -4 54 -10 72 -38 108 -46 58 -107 110 -252 213 -336 238
-451 388 -595 773 -95 256 -105 324 -104 745 1 651 51 915 173 915 42 0 83
-57 309 -430 278 -458 303 -503 597 -1046 46 -85 110 -254 224 -594 146 -432
191 -610 238 -930 46 -316 56 -466 56 -905 0 -728 -47 -1045 -263 -1760 -49
-162 -104 -309 -149 -399 -71 -140 -477 -844 -531 -919 -74 -103 -242 -278
-488 -508 -385 -361 -646 -562 -776 -599 -52 -15 -92 16 -250 192 -90 100
-147 141 -236 168 -165 51 -307 59 -1202 70 -986 11 -1096 20 -1260 97 -67 31
-93 53 -245 207 -179 180 -255 277 -329 416 -80 152 -156 388 -226 704 -100
448 -83 648 106 1251 99 314 142 418 242 580 167 272 325 500 622 900 497 667
731 1039 892 1414 55 130 111 226 138 241 10 6 28 10 40 10 67 0 103 -275 89
-680 -14 -393 -72 -645 -223 -968 -184 -393 -259 -689 -260 -1017 -1 -294 39
-412 193 -565 151 -149 275 -194 531 -193 134 0 168 4 255 27 192 50 329 137
521 330 125 126 217 244 309 396 131 217 175 213 250 -22 154 -487 177 -1068
59 -1508 -38 -144 -116 -293 -235 -450 -109 -144 -152 -222 -169 -306 -28
-134 53 -208 167 -153 67 32 216 184 292 299 145 217 276 537 315 768 40 231
52 618 27 842 -26 229 -75 467 -126 610 -36 99 -308 736 -353 825 -74 149
-136 225 -197 245 -31 10 -41 9 -80 -10 -27 -13 -53 -36 -67 -58 -21 -34 -22
-47 -20 -161 4 -183 -35 -363 -133 -618 -155 -399 -313 -594 -567 -702 -57
-23 -75 -26 -183 -26 -107 1 -127 4 -183 27 -120 51 -237 150 -283 240 -18 34
-23 65 -27 153 -5 137 13 242 64 362 120 287 164 401 231 603 94 284 176 566
202 699 54 270 52 707 -5 1051 -54 325 -192 720 -382 1094 -80 160 -150 248
-205 262 -35 8 -95 -9 -132 -38 -57 -45 -67 -122 -40 -318 19 -137 19 -266 0
-446 -40 -381 -128 -681 -300 -1024 -128 -256 -234 -419 -540 -830 -449 -604
-666 -937 -852 -1305 -187 -370 -288 -689 -335 -1065 -21 -166 -17 -757 5
-885 38 -216 105 -395 239 -633 45 -81 110 -199 143 -262 33 -63 79 -142 101
-175 45 -65 64 -112 64 -156 0 -42 -51 -94 -111 -114 -66 -22 -173 -110 -278
-227 -143 -160 -205 -205 -324 -232 -116 -27 -240 -91 -462 -239 -227 -151
-461 -331 -730 -562 -77 -66 -232 -187 -344 -270 -595 -438 -662 -493 -741
-616 -62 -96 -116 -282 -108 -375 12 -142 292 -587 678 -1079 185 -235 324
-425 600 -820 323 -461 476 -670 599 -820 172 -209 332 -418 389 -506 256
-399 351 -528 493 -664 91 -86 174 -135 267 -154 171 -35 320 18 587 209 72
51 240 166 375 255 135 89 297 200 360 245 156 113 215 150 239 150 23 0 7 11
689 -463 79 -55 181 -130 225 -168 95 -80 254 -163 392 -205 72 -22 111 -28
195 -28 97 -1 110 1 165 28 110 54 343 315 470 527 74 123 138 212 202 282
111 121 285 362 363 502 85 153 183 282 425 565 304 356 491 608 695 940 132
214 271 409 465 651 135 169 209 280 248 372 30 67 32 80 32 187 -1 100 -4
126 -29 195 -72 207 -213 358 -547 584 -205 139 -350 248 -489 367 -135 116
-359 285 -586 443 -193 134 -364 270 -394 312 -15 20 -20 38 -16 55 9 36 167
190 341 334 192 158 388 350 462 452 101 139 248 328 363 468 198 241 251 334
420 739 55 132 129 304 166 383 83 181 108 256 145 443 17 83 54 256 84 385
58 249 97 463 114 622 23 203 10 651 -30 1093 -24 267 -49 427 -88 562 -17 57
-42 176 -56 265 -56 353 -78 426 -240 793 -50 116 -95 224 -99 240 -13 52
-143 340 -266 590 -147 297 -245 462 -519 870 -211 316 -291 454 -291 505 0
41 36 161 79 258 51 119 116 233 274 481 196 309 271 401 327 401 48 0 141
-35 320 -120 344 -163 728 -264 1005 -264 199 1 640 81 883 160 191 63 413
182 520 278 51 47 110 132 118 172 5 27 1 37 -31 69 -108 108 -408 297 -629
396 -235 106 -362 131 -766 149 -238 10 -557 34 -632 46 -46 8 -49 25 -12 80
63 95 204 213 494 416 294 206 515 338 565 338 35 0 97 -33 260 -140 399 -261
805 -382 1285 -383 390 0 750 79 1078 239 176 85 252 155 252 231 -1 75 -73
162 -234 283 -328 246 -687 397 -1116 470 -197 34 -243 64 -203 133 27 46 101
88 553 314 l404 201 221 -112 c121 -62 268 -131 326 -154 549 -211 1125 -183
1654 81 314 157 634 401 690 525 l19 44 -22 41 c-40 75 -164 159 -340 234
-225 94 -391 133 -696 163 -307 30 -356 45 -356 103 0 102 528 603 735 697 33
15 105 40 160 55 201 54 440 162 620 279 322 210 616 546 770 879 90 194 178
607 179 837 1 117 -7 141 -57 167 -43 23 -189 27 -289 8z m-40 -401 c77 -85
-54 -428 -280 -730 -199 -267 -485 -520 -723 -639 -170 -85 -262 -86 -287 -4
-10 35 -8 49 20 133 51 157 209 458 343 656 151 224 298 348 597 503 150 78
257 119 287 111 11 -3 30 -17 43 -30z m-2904 -986 c31 -28 42 -88 51 -288 12
-237 -21 -446 -110 -715 -119 -357 -217 -544 -369 -698 -85 -87 -124 -107
-161 -83 -111 73 -114 498 -4 930 73 290 234 612 389 780 91 99 152 120 204
74z m-2240 -1347 c37 -41 49 -109 53 -323 9 -369 -29 -563 -158 -818 -104
-204 -292 -474 -367 -525 -69 -47 -131 -26 -152 50 -18 65 -24 385 -11 520 27
260 76 435 181 647 106 213 247 399 340 449 46 24 92 24 114 0z m3346 -591
c222 -12 348 -36 447 -85 83 -41 123 -85 123 -135 0 -111 -335 -251 -750 -315
-143 -22 -440 -30 -568 -16 -144 16 -223 36 -327 86 -110 53 -165 97 -165 131
0 44 72 108 188 167 232 117 368 150 687 166 83 5 157 9 165 9 8 1 98 -3 200
-8z m-5526 -959 c26 -29 53 -126 65 -232 29 -266 21 -778 -14 -914 -20 -78
-88 -220 -165 -341 -152 -243 -273 -335 -331 -254 -11 15 -26 74 -38 150 -59
361 -53 663 19 929 63 231 194 474 333 617 68 69 99 80 131 45z m2925 -501
c63 -6 143 -17 177 -25 182 -42 543 -201 621 -272 100 -93 56 -160 -141 -217
-192 -56 -310 -70 -571 -70 -208 0 -256 3 -360 22 -222 42 -417 122 -567 232
-71 52 -103 98 -94 135 16 62 238 144 491 179 181 26 288 30 444 16z m-1670
-1606 c194 -28 343 -74 493 -151 125 -64 162 -115 123 -171 -53 -74 -367 -184
-655 -228 -153 -24 -466 -24 -600 -1 -231 40 -408 116 -517 223 -35 34 -63 69
-63 77 0 85 403 238 707 267 118 12 382 3 512 -16z m-3736 -10191 c21 -34 40
-83 46 -118 29 -156 35 -523 35 -2240 1 -1791 -2 -1958 -39 -2139 -33 -159
-69 -189 -250 -205 -170 -16 -858 -31 -1750 -37 -1075 -8 -1197 0 -1231 82
-42 100 -48 588 -35 2594 11 1532 17 1828 42 1948 15 74 55 117 127 138 93 27
282 31 1679 32 l1342 2 34 -57z m732 -533 c58 -28 142 -88 299 -215 368 -295
559 -436 663 -488 88 -44 283 -194 441 -339 40 -37 151 -126 246 -198 187
-140 269 -220 280 -271 17 -88 -1 -155 -88 -327 -106 -206 -277 -451 -526
-752 -321 -389 -600 -778 -770 -1075 -122 -212 -229 -359 -405 -555 -150 -166
-207 -245 -309 -425 -128 -226 -230 -364 -406 -548 -209 -219 -289 -253 -427
-182 -68 35 -105 63 -549 408 -126 97 -254 196 -284 220 -91 70 -122 160 -72
210 22 21 166 32 557 42 412 10 582 29 709 81 77 31 130 73 208 166 l65 75 6
369 c4 203 7 752 7 1219 1 1033 16 2274 30 2410 12 123 24 159 59 184 71 51
149 48 266 -9z m-4340 28 c2 -2 14 -231 27 -508 20 -460 22 -626 23 -1875 1
-998 5 -1396 13 -1465 38 -302 93 -431 218 -516 132 -89 429 -148 954 -189
302 -24 390 -43 390 -83 0 -46 -101 -143 -370 -358 -408 -326 -612 -474 -653
-474 -66 0 -375 334 -676 730 -125 165 -206 283 -341 500 -120 192 -299 445
-474 670 -329 423 -464 606 -788 1070 -114 162 -250 354 -303 425 -253 341
-284 424 -208 554 80 138 412 411 943 776 289 199 346 240 620 445 280 210
315 234 400 278 61 31 70 33 143 29 43 -3 80 -7 82 -9z"/>
<path d="M17875 22553 c-82 -83 -82 -146 -2 -350 105 -267 151 -451 189 -768
18 -153 15 -556 -5 -695 -57 -387 -208 -726 -473 -1060 -91 -114 -326 -348
-449 -446 -588 -472 -1195 -842 -1750 -1069 -787 -321 -910 -379 -1677 -791
-759 -408 -1022 -573 -1184 -746 -81 -87 -107 -144 -102 -222 4 -52 9 -63 38
-89 30 -27 37 -29 84 -23 61 7 187 66 292 137 43 29 198 138 343 242 146 104
302 213 346 242 227 146 538 313 627 337 42 11 49 10 68 -7 11 -10 20 -31 20
-46 0 -38 -66 -163 -182 -344 -255 -400 -546 -959 -600 -1153 -27 -99 -81
-229 -194 -461 -78 -160 -116 -225 -225 -380 -380 -537 -684 -901 -999 -1197
-355 -333 -656 -533 -990 -658 -198 -75 -280 -141 -280 -228 0 -47 30 -108 66
-137 79 -62 323 25 674 241 471 290 926 682 1312 1128 256 297 313 388 695
1105 132 248 293 547 356 665 65 120 121 237 127 264 6 28 26 70 43 95 50 70
87 141 162 306 96 213 140 298 203 395 151 233 340 418 717 703 314 237 552
382 1130 689 685 364 873 490 1181 794 302 298 601 716 700 978 23 63 78 120
129 136 34 10 47 9 78 -3 50 -21 85 -78 271 -447 273 -541 393 -833 506 -1231
114 -405 254 -1169 282 -1546 14 -182 2 -371 -37 -618 -66 -409 -68 -430 -69
-580 0 -144 2 -156 41 -305 79 -298 162 -531 280 -785 39 -82 78 -175 88 -205
32 -99 175 -367 418 -785 197 -339 297 -497 458 -725 69 -99 197 -351 234
-462 29 -89 32 -164 8 -234 -25 -76 -134 -180 -243 -232 -103 -50 -251 -99
-322 -107 -78 -10 -142 -32 -248 -86 -136 -70 -223 -137 -260 -201 -63 -111
-118 -341 -105 -442 11 -83 50 -186 131 -348 104 -208 126 -268 127 -348 1
-77 -14 -111 -72 -163 -96 -86 -248 -135 -785 -252 -414 -89 -664 -186 -630
-242 31 -52 218 -66 684 -53 l355 10 98 -99 c111 -114 147 -176 147 -257 0
-100 -40 -150 -310 -393 -58 -52 -145 -132 -194 -178 l-88 -84 11 -162 c24
-325 53 -546 91 -692 93 -359 -1 -733 -253 -1001 -175 -188 -407 -269 -832
-294 -381 -21 -1198 70 -1525 172 -91 28 -340 88 -425 102 -139 24 -522 112
-608 140 -56 19 -205 79 -331 135 -262 116 -389 165 -763 291 -310 105 -412
153 -636 298 -89 58 -250 159 -357 225 -107 66 -219 138 -247 159 -288 212
-785 712 -1031 1036 -32 42 -144 217 -248 387 -176 289 -318 553 -424 789 -82
185 -135 246 -213 246 -91 0 -108 -112 -44 -300 39 -116 339 -746 419 -880
192 -321 534 -766 783 -1016 260 -263 633 -548 940 -721 115 -65 319 -158 415
-190 82 -27 140 -58 268 -141 235 -153 646 -314 1042 -408 80 -19 157 -39 172
-45 42 -17 61 -44 54 -75 -15 -59 -197 -214 -251 -214 -73 0 -389 -220 -588
-409 -166 -158 -313 -357 -426 -580 -83 -163 -119 -248 -202 -484 -40 -111
-96 -257 -125 -323 -29 -67 -58 -143 -65 -170 -18 -80 -67 -198 -165 -399 -51
-105 -111 -246 -134 -315 -59 -183 -125 -455 -149 -615 -31 -213 -81 -440
-185 -838 -52 -199 -100 -396 -105 -437 -6 -41 -15 -167 -21 -280 -5 -116 -14
-222 -22 -245 -17 -53 -47 -67 -126 -62 -72 5 -167 49 -363 166 -64 38 -127
72 -140 76 -52 16 -501 282 -689 408 -41 28 -97 70 -125 95 -187 167 -1112
759 -1466 938 -118 60 -160 67 -184 31 -29 -45 26 -145 128 -230 162 -136
1128 -818 1272 -898 33 -18 166 -103 295 -189 366 -244 682 -426 1045 -604
256 -125 365 -169 441 -174 85 -6 97 11 113 155 7 59 30 191 51 293 52 252
100 538 160 960 28 195 60 393 71 440 11 47 79 258 149 470 71 212 163 504
205 650 158 550 215 690 440 1105 51 94 145 271 210 395 65 124 142 263 173
310 379 585 974 754 2137 609 88 -11 284 -40 435 -64 379 -61 450 -68 645 -68
243 0 442 29 712 104 101 28 149 49 338 147 33 17 89 44 125 61 113 53 261
205 375 386 128 205 195 467 181 710 -6 110 -23 194 -70 357 -42 144 -57 254
-63 438 l-5 175 123 110 c390 349 472 456 471 617 -1 84 -32 179 -112 338 -33
66 -60 122 -60 126 0 3 45 52 100 110 109 113 167 194 202 283 18 45 22 77 22
166 1 108 0 113 -50 255 -29 80 -76 208 -105 285 -46 122 -53 152 -57 232 -4
86 -3 94 24 144 53 96 200 185 390 234 183 47 473 210 571 319 142 160 235
411 202 548 -35 148 -155 378 -499 953 -109 182 -288 492 -398 690 -110 198
-232 414 -272 480 -137 229 -211 410 -249 609 -45 234 -46 264 -43 1225 3 919
-1 1084 -33 1331 -34 252 -77 432 -190 781 -41 124 -79 262 -86 306 -16 106 1
181 79 350 90 195 134 345 167 563 36 238 36 571 1 770 -52 291 -275 846 -438
1090 -145 215 -397 461 -676 659 -162 114 -535 331 -570 331 -5 0 -22 -12 -37
-27z m691 -793 c87 -65 379 -408 499 -585 112 -165 166 -299 201 -500 22 -124
31 -660 15 -859 -22 -265 -74 -397 -138 -345 -27 23 -107 148 -190 299 -116
211 -180 310 -312 489 -245 329 -275 407 -240 611 5 30 13 242 17 471 7 374
10 419 26 444 23 34 51 29 122 -25z"/>
<path d="M17283 16860 c-433 -32 -634 -95 -1213 -385 -434 -216 -765 -397
-913 -498 -155 -106 -227 -192 -227 -272 0 -31 8 -45 45 -82 l45 -45 64 4 c89
5 176 51 393 205 217 155 343 233 534 328 429 216 854 344 1309 395 129 15
452 15 575 0 140 -16 376 -64 532 -107 83 -22 141 -33 157 -29 54 13 126 97
126 146 0 35 -75 105 -153 144 -157 77 -440 154 -668 180 -159 19 -462 27
-606 16z"/>
<path d="M17985 15711 c-127 -33 -313 -89 -785 -238 -486 -153 -739 -250
-1003 -385 -214 -110 -261 -163 -218 -246 54 -106 257 -197 796 -357 105 -31
291 -88 415 -127 534 -167 648 -190 727 -150 46 24 83 65 83 93 0 10 -14 34
-31 54 -76 86 -593 294 -1019 410 -171 46 -257 105 -232 159 14 31 46 48 268
137 461 184 696 267 960 339 259 70 344 117 344 190 0 40 -39 104 -82 134 -33
23 -97 19 -223 -13z"/>
</g>
</svg>
